# xmcd
# 
# Track frame offsets:
#     150
#     17009
#     37871
#     55618
#     69489
#     85271
#     105362
#     124996
#     148742
#     163602
#     182406
#     201742
# 
# Disc length: 2957
# 
# Revision: 0
# Processed by: cddbd v1.5.2PL0 Copyright (c) Steve Scherf et al.
# Submitted via: fre:ac v1.0.17
# 
DISCID=9e0b8b0c
DTITLE=First Class Blues Bamd - Brand New
DYEAR=2013
DGENRE=Blues
TTITLE0=Gasoline Walk
TTITLE1=I Kicked The Habit
TTITLE2=Help Yourself
TTITLE3=Lady Luck
TTITLE4=Zydecko Boogaloo
TTITLE5=I Need You
TTITLE6=Slidin' The Boogie
TTITLE7=Me And The Blues
TTITLE8=You're Gonna Get The Blues
TTITLE9=Breakin' Up Somebody's Home
TTITLE10=Lippstick Traces
TTITLE11=Tuff
EXTD=
EXTT0=
EXTT1=
EXTT2=
EXTT3=
EXTT4=
EXTT5=
EXTT6=
EXTT7=
EXTT8=
EXTT9=
EXTT10=
EXTT11=
PLAYORDER=
